<?xml version="1.0" encoding="utf-8"?>
<!-- Generator: Adobe Illustrator 24.2.1, SVG Export Plug-In . SVG Version: 6.00 Build 0)  -->
<svg version="1.1" id="Layer_1" xmlns="http://www.w3.org/2000/svg" xmlns:xlink="http://www.w3.org/1999/xlink" x="0px" y="0px"
	 viewBox="0 0 50 50" style="enable-background:new 0 0 50 50;" xml:space="preserve">
<style type="text/css">
	.st0{fill:none;}
</style>
<polygon class="st0" points="33.01,24.96 26.12,17.81 26.12,25.12 33.01,25.12 "/>
<g id="SxH653_1_">
	<g>
		<path d="M0.62,24.45c0.03-0.08,0.06-0.16,0.08-0.24c0.14-0.52,0.43-0.91,0.89-1.18c0.9-0.54,1.8-1.07,2.7-1.6
			c3.59-2.07,7.19-4.14,10.79-6.21c0.05-0.03,0.09-0.05,0.16-0.08c0,0.07,0.01,0.12,0.01,0.17c0,1.64,0,3.27,0,4.91
			c0,0.14-0.05,0.22-0.17,0.28c-2.22,1.16-4.44,2.33-6.66,3.5c-0.55,0.29-1.11,0.58-1.69,0.89c0.08,0.05,0.12,0.08,0.18,0.1
			c2.33,1.06,4.55,2.32,6.75,3.61c0.48,0.28,0.97,0.56,1.45,0.86c0.06,0.04,0.13,0.14,0.13,0.21c0.01,1.7,0.01,3.4,0.01,5.09
			c0,0.02,0,0.04-0.01,0.08c-0.05-0.02-0.1-0.04-0.14-0.06c-4.42-2.58-8.83-5.16-13.24-7.75c-0.66-0.39-1.01-1.01-1.19-1.74
			c-0.01-0.05-0.03-0.1-0.04-0.15C0.62,24.91,0.62,24.68,0.62,24.45z"/>
		<path d="M34.75,34.87c0-1.13,0-2.22,0-3.3c0-0.57,0.01-1.14-0.01-1.7c-0.01-0.21,0.07-0.31,0.24-0.4c1.98-1.03,3.95-2.07,5.92-3.1
			c0.74-0.39,1.47-0.78,2.2-1.16c0.04-0.02,0.08-0.05,0.14-0.08c-0.06-0.04-0.09-0.07-0.13-0.08c-2.43-1.1-4.74-2.43-7.04-3.77
			c-0.4-0.24-0.81-0.47-1.2-0.71c-0.06-0.04-0.13-0.13-0.13-0.2c-0.01-1.71,0-3.42,0-5.13c0-0.01,0.01-0.03,0.01-0.06
			c0.06,0.03,0.11,0.05,0.16,0.08c4.41,2.58,8.81,5.15,13.22,7.73c0.95,0.55,1.46,1.86,1.14,2.91c-0.15,0.49-0.44,0.86-0.88,1.12
			c-1.21,0.71-2.42,1.43-3.64,2.13c-3.28,1.89-6.56,3.78-9.85,5.66C34.88,34.8,34.83,34.83,34.75,34.87z"/>
		<path d="M30.18,14.42c-0.25,0.77-0.48,1.5-0.72,2.23c-2.03,6.24-4.05,12.48-6.08,18.72c-0.05,0.16-0.12,0.22-0.29,0.21
			c-1.01-0.01-2.02,0-3.03,0c-0.07,0-0.13,0-0.23,0c0.04-0.13,0.07-0.23,0.1-0.34c2.25-6.86,4.5-13.73,6.74-20.59
			c0.05-0.16,0.12-0.23,0.3-0.23c0.99,0.01,1.98,0.01,2.97,0.01C30.01,14.42,30.08,14.42,30.18,14.42z"/>
	</g>
</g>
</svg>
